<svg version="1.2" xmlns="http://www.w3.org/2000/svg" viewBox="0 0 128 128" width="128" height="128">
	<title>javascript</title>
	<style>
		.s0 { fill: #2563eb } 
		.s1 { fill: #60a5fa } 
	</style>
	<path fill-rule="evenodd" class="s0" d="m17.7 13h93.7c7.6 0 13.7 6.1 13.7 13.7 0 7.5-6.1 13.6-13.7 13.6h-93.7c-7.6 0-13.7-6.1-13.7-13.6 0-7.6 6.1-13.7 13.7-13.7z"/>
	<path fill-rule="evenodd" class="s1" d="m17.7 56c7.5 0 13.6 6.1 13.6 13.6v31.3c0 7.5-6.1 13.7-13.6 13.7-7.6 0-13.7-6.2-13.7-13.7v-31.3c0-7.5 6.1-13.6 13.7-13.6z"/>
	<path fill-rule="evenodd" class="s0" d="m17.7 56h31.2c7.6 0 13.7 6.1 13.7 13.6 0 7.6-6.1 13.7-13.7 13.7h-31.2c-7.6 0-13.7-6.1-13.7-13.7 0-7.5 6.1-13.6 13.7-13.6z"/>
	<path fill-rule="evenodd" class="s0" d="m84.1 56c7.5 0 13.6 6.1 13.6 13.6 0 7.6-6.1 13.7-13.6 13.7-7.6 0-13.7-6.1-13.7-13.7 0-7.5 6.1-13.6 13.7-13.6z"/>
</svg>